<svg width="545" height="108" viewBox="0 0 545 108" fill="none" xmlns="http://www.w3.org/2000/svg">
<g clip-path="url(#clip0_19_95)">
<path d="M305.069 34.4567C304.658 34.4567 304.288 34.4567 304.042 34.5796C303.754 34.6616 303.508 34.8255 303.344 35.0713C303.138 35.3171 303.015 35.6449 302.933 36.1365C302.851 36.6282 302.81 37.2428 302.81 38.0212V46.2974H296.239V35.3991C296.239 34.6206 296.239 33.8831 296.362 33.1866C296.444 32.4901 296.649 31.8755 296.937 31.3839C297.224 30.8513 297.635 30.4416 298.169 30.1548C298.703 29.868 299.442 29.7041 300.346 29.7041H301.003C300.633 28.8027 300.387 27.7784 300.222 26.6722C300.058 25.566 299.976 24.5827 299.976 23.8042C299.976 22.2473 300.263 20.8133 300.838 19.5842C301.413 18.3551 302.235 17.3308 303.262 16.4704C304.288 15.651 305.52 14.9954 306.917 14.5857C308.313 14.176 309.874 13.9302 311.558 13.9302C313.283 13.9302 314.843 14.176 316.24 14.6677C317.636 15.1593 318.786 15.8558 319.731 16.7572C320.675 17.6586 321.414 18.7238 321.907 20.0349C322.4 21.305 322.688 22.739 322.688 24.2549C322.688 25.6479 322.482 26.959 322.072 28.1881C321.661 29.4173 321.045 30.4825 320.265 31.4249C319.484 32.3672 318.499 33.1047 317.307 33.6373C316.116 34.2109 314.761 34.4567 313.2 34.4567H305.069ZM311.476 29.6631C312.174 29.6631 312.79 29.4992 313.324 29.2534C313.858 28.9666 314.309 28.5979 314.679 28.1062C315.049 27.6145 315.295 27.0409 315.5 26.3854C315.706 25.7299 315.788 25.0334 315.788 24.3369C315.788 22.5341 315.418 21.1411 314.72 20.1168C314.022 19.0925 312.913 18.6009 311.393 18.6009C309.997 18.6009 308.929 19.0925 308.108 20.0349C307.327 20.9772 306.917 22.2883 306.917 23.9681C306.917 24.7875 306.999 25.7708 307.204 26.8771C307.41 27.9833 307.656 28.9666 308.026 29.745H311.517L311.476 29.6631Z" fill="white"/>
<path d="M345.769 34.4157C345.687 35.7268 345.482 36.874 345.112 37.8983C344.742 38.9225 344.167 39.7829 343.387 40.5204C342.607 41.2169 341.58 41.7905 340.348 42.1593C339.075 42.528 337.514 42.7329 335.625 42.7329H327.862V38.1031H335.502C336.775 38.1031 337.678 37.8163 338.212 37.2018C338.746 36.6282 339.075 35.6858 339.116 34.4157H336.693C335.091 34.4157 333.53 34.2928 332.052 34.006C330.573 33.7602 329.3 33.2276 328.191 32.531C327.082 31.7936 326.22 30.8103 325.563 29.4992C324.905 28.1881 324.577 26.5083 324.577 24.4188C324.577 22.1653 324.988 20.3216 325.809 18.9286C326.63 17.5356 327.657 16.4703 328.889 15.7329C330.121 14.9954 331.436 14.5037 332.832 14.2579C334.228 14.0121 335.543 13.8892 336.693 13.8892C337.35 13.8892 338.13 13.8892 338.992 13.9301C339.855 13.9301 340.717 14.0121 341.539 14.0121C342.36 14.0121 343.182 14.094 343.921 14.135C344.66 14.176 345.276 14.2169 345.687 14.2579V29.5811H350.081C350.697 29.5811 351.19 29.8269 351.519 30.2776C351.847 30.7693 352.012 31.3019 352.012 31.9984C352.012 33.5963 351.396 34.3747 350.122 34.3747H345.728L345.769 34.4157ZM331.189 24.2958C331.189 26.1805 331.6 27.5735 332.421 28.393C333.243 29.2124 334.639 29.6631 336.569 29.6631H339.198V19.0106C338.623 19.0106 338.089 18.9696 337.596 18.9696C337.103 18.9696 336.734 18.9696 336.528 18.9696C335.912 18.9696 335.255 19.0515 334.639 19.1744C334.023 19.2974 333.448 19.5432 332.914 19.9529C332.38 20.3216 331.969 20.8952 331.641 21.5917C331.312 22.2882 331.148 23.2306 331.189 24.3778V24.2958Z" fill="white"/>
<path d="M366.263 34.3749C365.359 34.3749 364.497 34.211 363.717 33.9242C362.936 33.6374 362.32 33.1047 361.786 32.3263C361.417 32.818 360.842 33.2686 360.061 33.7193C359.322 34.17 358.09 34.3749 356.447 34.3749H350.122C349.506 34.3749 349.014 34.17 348.685 33.6783C348.356 33.2277 348.192 32.6541 348.192 31.9985C348.192 30.4007 348.808 29.5812 350.081 29.5812H352.874C353.613 29.5812 354.188 29.5403 354.599 29.4173C355.01 29.3354 355.297 29.1305 355.544 28.8847C355.749 28.6389 355.872 28.2702 355.913 27.7785C355.954 27.2868 355.995 26.6313 355.995 25.8119V14.217H362.567V27.6146C362.567 27.9834 362.69 28.3111 362.895 28.5569C363.101 28.8028 363.388 29.0076 363.717 29.1305C364.045 29.2535 364.415 29.3764 364.784 29.4173C365.154 29.4993 365.483 29.4993 365.77 29.4993H367.002C367.618 29.4993 368.111 29.7451 368.44 30.1958C368.768 30.6875 368.933 31.2201 368.933 31.9166C368.933 33.5145 368.317 34.2929 367.043 34.2929H366.181L366.263 34.3749ZM351.314 41.217C351.314 40.3157 351.642 39.5372 352.299 38.8817C352.956 38.2261 353.737 37.8984 354.64 37.8984C355.544 37.8984 356.324 38.2261 356.981 38.8817C357.638 39.5372 357.967 40.3157 357.967 41.217C357.967 42.1184 357.638 42.8969 356.981 43.5524C356.324 44.2079 355.544 44.5357 354.64 44.5357C353.737 44.5357 352.956 44.2079 352.299 43.5524C351.642 42.8969 351.314 42.1184 351.314 41.217ZM359.199 41.217C359.199 40.3157 359.528 39.5372 360.185 38.8817C360.842 38.2261 361.622 37.8984 362.526 37.8984C363.429 37.8984 364.209 38.2261 364.867 38.8817C365.524 39.5372 365.852 40.3157 365.852 41.217C365.852 42.1184 365.524 42.8969 364.867 43.5524C364.209 44.2079 363.429 44.5357 362.526 44.5357C361.622 44.5357 360.842 44.2079 360.185 43.5524C359.528 42.8969 359.199 42.1184 359.199 41.217Z" fill="white"/>
<path d="M367.125 34.3747C366.509 34.3747 366.017 34.1289 365.688 33.6782C365.359 33.2276 365.195 32.654 365.195 31.9984C365.195 30.4005 365.811 29.5811 367.084 29.5811H373.081V0.163818H379.693V34.3747H367.125Z" fill="white"/>
<path d="M393.123 0.163818V34.3747H386.552V0.163818H393.123Z" fill="white"/>
<path d="M396.491 40.2748V37.8984H420.188V40.2748H396.491Z" fill="white"/>
<path d="M456.658 29.5403V0.0820312H463.229V34.293H430.045C427.54 34.293 425.65 33.8013 424.295 32.818C422.981 31.8347 422.283 30.1549 422.283 27.7785V18.4371H428.895V25.73C428.895 26.7952 429.1 27.6966 429.552 28.4341C429.963 29.1716 430.907 29.5403 432.263 29.4993H456.576L456.658 29.5403ZM447.869 18.4781H438.054V16.0608H440.189C439.943 15.3233 439.778 14.7907 439.696 14.381C439.614 13.9713 439.614 13.6435 439.614 13.3157C439.614 12.0456 440.066 11.0623 440.969 10.3248C441.873 9.58734 443.228 9.2186 444.953 9.2186C445.2 9.2186 445.528 9.2186 445.98 9.2186C446.391 9.2186 446.76 9.2186 447.048 9.30054V11.6359C447.048 11.6359 446.637 11.6359 446.35 11.5949C446.021 11.5949 445.816 11.554 445.651 11.554C444.871 11.554 444.255 11.7178 443.803 12.0456C443.352 12.3734 443.146 12.947 443.146 13.7664C443.146 14.0122 443.146 14.34 443.228 14.7087C443.31 15.0775 443.434 15.5282 443.639 16.0608H447.869V18.4781Z" fill="white"/>
<path d="M492.143 34.2519C491.239 34.2519 490.377 34.088 489.596 33.8012C488.816 33.5144 488.159 32.9818 487.666 32.2033C487.297 32.695 486.681 33.1866 485.859 33.5964C485.038 34.0061 483.806 34.2519 482.163 34.2519H468.486V29.4992H478.302C479.041 29.4992 479.658 29.3763 480.15 29.1715C480.643 28.9666 481.013 28.6388 481.259 28.2291C481.547 27.8194 481.711 27.3687 481.793 26.8361C481.875 26.3035 481.916 25.6889 481.916 25.0334C481.916 24.091 481.834 23.2307 481.711 22.4522C481.588 21.6737 481.259 21.0182 480.766 20.4856C480.274 19.953 479.575 19.5023 478.631 19.2155C477.686 18.9287 476.454 18.8058 474.893 18.8058H471.444V14.176H475.509C478.179 14.176 480.397 14.4219 482.122 14.9545C483.847 15.4871 485.161 16.2246 486.106 17.1669C487.05 18.1093 487.707 19.2564 488.036 20.5675C488.364 21.8786 488.57 23.3945 488.57 25.0334V27.5736C488.57 27.9423 488.693 28.2701 488.898 28.5159C489.104 28.7618 489.391 28.9666 489.72 29.0895C490.048 29.2124 490.418 29.3354 490.788 29.3763C491.157 29.4583 491.486 29.4583 491.773 29.4583H492.636C493.252 29.4583 493.745 29.7041 494.073 30.1548C494.402 30.6464 494.566 31.1791 494.566 31.8756C494.566 33.4734 493.95 34.2519 492.677 34.2519H492.184H492.143Z" fill="white"/>
<path d="M492.102 34.2518C491.486 34.2518 490.993 34.006 490.664 33.5553C490.336 33.1046 490.171 32.531 490.171 31.8755C490.171 30.2776 490.787 29.4582 492.061 29.4582H497.687C497.359 28.5568 497.03 27.5735 496.784 26.5082C496.537 25.443 496.414 24.3368 496.414 23.1486C496.414 21.8375 496.619 20.6494 497.112 19.4612C497.564 18.314 498.262 17.2897 499.166 16.4703C500.11 15.6099 501.26 14.9544 502.698 14.4217C504.094 13.9301 505.778 13.6433 507.667 13.6433C508.037 13.6433 508.448 13.6433 508.94 13.6433C509.392 13.6433 509.885 13.6433 510.337 13.7252C510.83 13.7252 511.281 13.7662 511.692 13.8072C512.144 13.8072 512.514 13.8072 512.801 13.8891V18.5189C512.473 18.5189 511.939 18.4369 511.158 18.3959C510.378 18.355 509.762 18.314 509.228 18.314C507.092 18.314 505.573 18.8057 504.669 19.748C503.766 20.7313 503.355 22.0424 503.355 23.6812C503.355 24.6645 503.478 25.6478 503.766 26.6312C504.053 27.6145 504.341 28.5158 504.71 29.3353H515.43V34.0879H492.102V34.2518ZM503.642 7.04694C503.642 6.14557 503.971 5.36712 504.628 4.71158C505.285 4.05604 506.066 3.72827 506.969 3.72827C507.873 3.72827 508.653 4.05604 509.31 4.71158C509.967 5.36712 510.296 6.14557 510.296 7.04694C510.296 7.9483 509.967 8.72675 509.31 9.38229C508.653 10.0378 507.873 10.3656 506.969 10.3656C506.066 10.3656 505.285 10.0378 504.628 9.38229C503.971 8.72675 503.642 7.9483 503.642 7.04694Z" fill="white"/>
<path d="M539.866 14.0121L538.675 20.6085H542.988V25.3202H537.813L536.211 34.2109H530.954L532.515 25.3202H527.545L525.985 34.2109H520.687L522.288 25.3202H517.976V20.6085H523.151L524.301 14.0121H519.988V9.30045H525.163L526.806 0H532.104L530.461 9.25948H535.431L537.032 0H542.331L540.688 9.25948H545V13.9712H539.866V14.0121ZM529.558 14.0121L528.367 20.6085H533.336L534.527 14.0121H529.558Z" fill="white"/>
<path d="M491.321 92.3489C491.321 93.3732 491.157 94.1107 490.829 94.4794C490.5 94.8481 489.843 95.012 488.939 95.012H476.043V88.9893C476.495 88.9073 476.947 88.7844 477.44 88.7025C478.22 88.5386 479.041 88.4157 479.904 88.2928C480.766 88.1698 481.629 88.0469 482.532 87.965C483.395 87.883 484.257 87.8421 485.079 87.8421C487.297 87.8421 488.98 88.2108 489.966 88.9483C490.87 89.6038 491.321 90.7101 491.321 92.3079M297.553 95.012H296.033C294.514 95.012 293.446 94.7252 292.871 94.1926C292.337 93.66 292.049 92.7586 292.049 91.4475C292.049 90.6281 292.173 90.0135 292.378 89.5219C292.583 89.0712 292.871 88.7434 293.199 88.4976C293.569 88.2518 293.98 88.0879 294.431 88.006C294.924 87.924 295.458 87.8831 295.992 87.8831C295.992 87.8831 297.347 87.8831 297.553 87.8831V95.012ZM531.693 100.953V82.0242H523.849V95.012H501.26C501.055 95.012 500.768 95.012 500.48 94.9301C500.193 94.9301 499.946 94.8072 499.7 94.7252C499.535 94.6433 499.371 94.5613 499.207 94.3155V93.0454C499.207 91.4885 499.043 90.0545 498.714 88.7434C498.344 87.3504 497.646 86.1213 496.661 85.097C495.675 84.1137 494.32 83.3352 492.636 82.8026C490.993 82.27 488.898 82.0242 486.393 82.0242C485.531 82.0242 484.586 82.0651 483.518 82.1881C482.491 82.27 481.424 82.3929 480.356 82.5568C479.288 82.7207 478.302 82.8846 477.317 83.0485C476.824 83.1304 476.372 83.2123 476.002 83.2943V70.1016H468.158V95.012H411.481C411.276 95.012 410.988 95.012 410.701 94.9301C410.413 94.9301 410.167 94.8072 409.92 94.7252C409.756 94.6433 409.592 94.5613 409.428 94.3155V70.1016H401.583V92.7996C401.583 93.4551 401.583 93.9878 401.542 94.3565C401.542 94.6433 401.419 94.7662 401.419 94.7662C401.419 94.7662 401.296 94.8891 401.049 94.9301C400.721 95.012 400.269 95.012 399.653 95.012H305.356V82.1061L302.892 81.9422C302.194 81.9422 301.454 81.8603 300.715 81.8603L298.374 81.7783C297.553 81.7783 296.855 81.7374 296.239 81.7374C295.13 81.7374 293.898 81.8603 292.583 82.0651C291.187 82.27 289.873 82.7207 288.682 83.4172C287.408 84.1137 286.382 85.138 285.519 86.4491C284.657 87.7601 284.246 89.5219 284.246 91.6114C284.246 93.5371 284.575 95.1349 285.273 96.3641C285.93 97.5932 286.875 98.5765 287.983 99.273C289.092 99.9286 290.366 100.42 291.803 100.666C293.199 100.912 294.678 101.035 296.197 101.035H297.43C297.43 101.035 297.142 101.24 296.69 101.404C296.156 101.608 295.253 101.772 294.103 101.895C292.912 102.018 291.269 102.1 289.216 102.1C287.162 102.1 285.519 101.977 284.164 101.772C282.85 101.567 281.823 101.24 281.002 100.748C280.262 100.297 279.728 99.7237 279.4 99.0272C279.03 98.2488 278.866 97.2654 278.866 96.0363V89.317H271.021V96.8967C271.021 98.9043 271.391 100.666 272.171 102.1C272.952 103.534 274.143 104.722 275.662 105.624C277.141 106.484 279.03 107.099 281.207 107.467C283.343 107.836 285.889 108 288.723 108C291.351 108 293.692 107.877 295.664 107.631C297.676 107.385 299.401 106.935 300.715 106.361C302.112 105.746 303.22 104.927 304.001 103.903C304.617 103.083 305.028 102.1 305.192 100.994H402.856C404.54 100.994 405.731 100.789 406.553 100.338C406.963 100.133 407.333 99.8876 407.662 99.6418C408.113 100.051 408.606 100.379 409.181 100.543C409.962 100.83 410.865 100.994 411.81 100.994H492.102C493.745 100.994 494.977 100.789 495.88 100.379C496.332 100.133 496.743 99.9286 497.071 99.6418C497.482 100.051 497.975 100.338 498.509 100.543C499.248 100.83 500.11 100.994 501.055 100.994H531.652L531.693 100.953Z" fill="#ED1F30"/>
<path d="M289.174 74.3216C289.955 73.6251 290.858 73.2563 291.926 73.2563C292.994 73.2563 293.897 73.6251 294.678 74.3216C295.047 74.6494 295.335 75.0591 295.54 75.4688C295.746 75.0591 296.033 74.6494 296.403 74.3216C297.183 73.6251 298.087 73.2563 299.154 73.2563C300.222 73.2563 301.126 73.6251 301.906 74.3216C302.686 75.0591 303.097 75.9604 303.097 77.0257C303.097 78.0909 302.686 78.9923 301.906 79.7298C301.167 80.4263 300.222 80.795 299.154 80.795C298.087 80.795 297.183 80.4263 296.403 79.7298C296.033 79.402 295.746 78.9923 295.54 78.5826C295.335 78.9923 295.047 79.402 294.678 79.7298C293.897 80.4263 292.994 80.795 291.926 80.795C290.858 80.795 289.955 80.4263 289.174 79.7298C288.394 78.9923 287.983 78.0909 287.983 77.0257C287.983 75.9604 288.394 75.0591 289.174 74.3216Z" fill="#ED1F30"/>
<path d="M162.063 74.6903C162.843 73.9937 163.746 73.625 164.814 73.625C165.882 73.625 166.786 73.9937 167.566 74.6903C168.346 75.4277 168.757 76.3291 168.757 77.3943C168.757 78.4596 168.346 79.361 167.566 80.0984C166.827 80.795 165.882 81.1637 164.814 81.1637C163.746 81.1637 162.843 80.795 162.063 80.0984C161.282 79.361 160.872 78.4596 160.872 77.3943C160.872 76.3291 161.282 75.4277 162.063 74.6903Z" fill="#ED1F30"/>
<path d="M167.361 89.6038C167.361 90.2594 167.155 90.9559 166.745 91.7343C166.375 92.4308 165.677 93.2503 164.691 94.1516C163.705 93.2503 163.007 92.4308 162.596 91.7343C162.145 90.9559 161.939 90.2594 161.939 89.7677C161.939 89.5629 161.939 89.317 162.063 89.1122C162.104 88.9483 162.227 88.7844 162.391 88.6205C162.555 88.4566 162.843 88.2928 163.213 88.1699C163.582 88.0469 164.116 87.965 164.732 87.965C165.307 87.965 165.759 88.0469 166.128 88.1699C166.457 88.2928 166.745 88.4157 166.95 88.5796C167.114 88.7435 167.237 88.8664 167.32 89.0712C167.402 89.2761 167.443 89.44 167.443 89.6448M250.117 101.404V70.5522H242.272V95.4627H223.709C223.503 95.4627 223.216 95.4627 222.928 95.3808C222.641 95.3808 222.394 95.2579 222.148 95.1759C221.984 95.094 221.82 95.012 221.655 94.7662V70.5522H213.811V93.2503C213.811 93.9058 213.811 94.4384 213.77 94.8072C213.77 95.094 213.647 95.1759 213.647 95.2169C213.647 95.2169 213.523 95.2988 213.277 95.3808C212.948 95.4627 212.497 95.4627 211.881 95.4627H172.741C173.603 94.5613 174.219 93.7419 174.671 92.9225C175.41 91.5705 175.78 90.3004 175.78 89.0712C175.78 87.8421 175.451 86.7359 174.753 85.8345C174.096 84.9741 173.234 84.2366 172.166 83.704C171.139 83.1714 169.989 82.7617 168.675 82.5158C167.402 82.27 166.087 82.1471 164.732 82.1471C163.377 82.1471 162.063 82.27 160.789 82.5568C159.475 82.8436 158.325 83.2533 157.339 83.7859C156.272 84.3595 155.409 85.097 154.752 85.9574C154.054 86.8997 153.684 88.006 153.684 89.1941C153.684 90.3823 154.095 91.6524 154.834 93.0454C155.286 93.8648 155.902 94.6433 156.682 95.4627H22.2189C22.0136 95.4627 21.7261 95.4627 21.4386 95.3808C21.1511 95.3808 20.9047 95.2579 20.6583 95.1759C20.494 95.094 20.3297 95.012 20.1654 94.7662V92.5947C20.1654 91.1198 20.0011 89.7677 19.6315 88.5386C19.2619 87.2275 18.5637 86.1213 17.578 85.2199C16.5923 84.3186 15.2781 83.622 13.5531 83.1714C11.9103 82.7207 9.81575 82.4749 7.2694 82.4749H2.71063V88.2928H6.77656C8.13188 88.2928 9.1997 88.4157 9.93896 88.6205C10.6372 88.8254 11.1711 89.1122 11.4996 89.44C11.8282 89.7677 12.0335 90.1774 12.1157 90.6281C12.2389 91.2017 12.28 91.8982 12.28 92.6357C12.28 93.1274 12.28 93.619 12.1978 93.9878C12.1567 94.2746 12.0335 94.5204 11.9103 94.7662C11.746 94.9711 11.5407 95.1349 11.2532 95.2579C10.9246 95.3808 10.4729 95.4627 9.89789 95.4627H0V101.404H13.4299C15.0727 101.404 16.3048 101.199 17.2084 100.789C17.7012 100.543 18.0708 100.338 18.4405 100.051C18.8922 100.461 19.4261 100.789 20.0011 100.953C20.8225 101.24 21.685 101.404 22.6296 101.404H158.243C159.311 101.404 160.214 101.404 160.913 101.281C161.652 101.199 162.268 101.117 162.761 100.994C163.295 100.871 163.705 100.748 164.075 100.625C164.28 100.543 164.527 100.461 164.732 100.42C164.937 100.461 165.143 100.543 165.348 100.625C165.677 100.748 166.128 100.871 166.621 100.994C167.114 101.117 167.689 101.199 168.387 101.281C169.086 101.363 169.907 101.404 170.893 101.404H215.043C216.727 101.404 217.918 101.199 218.739 100.748C219.15 100.543 219.52 100.297 219.848 100.051C220.3 100.461 220.793 100.789 221.368 100.953C222.148 101.24 223.052 101.404 223.996 101.404H250.035H250.117Z" fill="#ED1F30"/>
<path d="M530.461 79.7298C529.681 80.4263 528.777 80.795 527.71 80.795C526.642 80.795 525.738 80.4263 524.958 79.7298C524.177 78.9923 523.767 78.0909 523.767 77.0257C523.767 75.9604 524.177 75.0591 524.958 74.3216C525.738 73.6251 526.642 73.2563 527.71 73.2563C528.777 73.2563 529.681 73.6251 530.461 74.3216C531.242 75.0591 531.652 75.9604 531.652 77.0257C531.652 78.0909 531.242 78.9923 530.461 79.7298Z" fill="#ED1F30"/>
<path d="M545 70.1426H537.156V100.994H545V70.1426Z" fill="#ED1F30"/>
</g>
<defs>
<clipPath id="clip0_19_95">
<rect width="545" height="108" fill="white"/>
</clipPath>
</defs>
</svg>
