<svg width="1066" height="114" viewBox="0 0 1066 114" fill="none" xmlns="http://www.w3.org/2000/svg">
<path d="M5.58267 60.5V52.82H14.1627V60.5H5.58267ZM5.58267 83V75.32H14.1627V83H5.58267ZM29.6699 57.5H38.0699V81.2C38.0699 82.96 37.9299 84.58 37.6499 86.06C37.3699 87.58 36.8099 88.88 35.9699 89.96C35.1699 91.08 34.0299 91.94 32.5499 92.54C31.1099 93.18 29.2099 93.5 26.8499 93.5H23.7899V86.54H24.7499C25.5899 86.54 26.3099 86.46 26.9099 86.3C27.5499 86.18 28.0699 85.92 28.4699 85.52C28.8699 85.12 29.1699 84.56 29.3699 83.84C29.5699 83.16 29.6699 82.26 29.6699 81.14V57.5ZM75.5914 83C75.5114 84.64 75.2314 86.1 74.7514 87.38C74.3114 88.7 73.5914 89.8 72.5914 90.68C71.6314 91.6 70.3514 92.3 68.7514 92.78C67.1514 93.26 65.1514 93.5 62.7514 93.5H52.9114V87.62H62.5714C64.1714 87.62 65.3114 87.24 65.9914 86.48C66.7114 85.76 67.1114 84.6 67.1914 83H64.1314C62.0914 83 60.1314 82.84 58.2514 82.52C56.4114 82.16 54.7914 81.52 53.3914 80.6C52.0314 79.68 50.9314 78.4 50.0914 76.76C49.2914 75.12 48.8914 72.98 48.8914 70.34C48.8914 67.46 49.4114 65.14 50.4514 63.38C51.4914 61.62 52.7914 60.28 54.3514 59.36C55.9114 58.4 57.5714 57.78 59.3314 57.5C61.1314 57.18 62.7714 57.02 64.2514 57.02C65.0914 57.02 66.0514 57.04 67.1314 57.08C68.2514 57.12 69.3314 57.16 70.3714 57.2C71.4514 57.24 72.4514 57.3 73.3714 57.38C74.3314 57.42 75.0914 57.46 75.6514 57.5V76.94H81.1714C81.9714 76.94 82.5714 77.24 82.9714 77.84C83.3714 78.44 83.5714 79.16 83.5714 80C83.5714 82 82.7714 83 81.1714 83H75.5914ZM57.1714 70.16C57.1714 72.56 57.6914 74.3 58.7314 75.38C59.7714 76.42 61.5114 76.94 63.9514 76.94H67.2514V63.44C66.5314 63.4 65.8514 63.38 65.2114 63.38C64.6114 63.38 64.1714 63.38 63.8914 63.38C63.0914 63.38 62.2914 63.46 61.4914 63.62C60.7314 63.78 60.0114 64.1 59.3314 64.58C58.6914 65.06 58.1714 65.76 57.7714 66.68C57.3714 67.56 57.1714 68.72 57.1714 70.16ZM135.938 83C134.778 83 133.738 82.82 132.818 82.46C131.938 82.06 131.178 81.38 130.538 80.42C130.058 81.06 129.298 81.66 128.258 82.22C127.218 82.74 125.658 83 123.578 83H84.7578C83.9578 83 83.3578 82.72 82.9578 82.16C82.5578 81.56 82.3578 80.84 82.3578 80C82.3578 77.96 83.1578 76.94 84.7578 76.94H91.6578V57.5H99.9978V59.66C100.878 59.46 101.978 59.24 103.298 59C104.618 58.72 105.998 58.48 107.438 58.28C108.878 58.04 110.318 57.86 111.758 57.74C113.198 57.58 114.498 57.5 115.658 57.5C119.018 57.5 121.758 57.88 123.878 58.64C126.038 59.36 127.718 60.38 128.918 61.7C130.158 63.02 130.998 64.62 131.438 66.5C131.878 68.34 132.098 70.36 132.098 72.56V74.48C132.098 74.96 132.238 75.36 132.518 75.68C132.798 76 133.138 76.26 133.538 76.46C133.978 76.62 134.438 76.74 134.918 76.82C135.398 76.9 135.818 76.94 136.178 76.94H137.258C138.058 76.94 138.658 77.24 139.058 77.84C139.458 78.44 139.658 79.16 139.658 80C139.658 82 138.858 83 137.258 83H135.938ZM113.798 63.38C112.598 63.38 111.358 63.44 110.078 63.56C108.838 63.68 107.598 63.84 106.358 64.04C105.158 64.24 103.998 64.46 102.878 64.7C101.798 64.9 100.838 65.12 99.9978 65.36V76.94H119.138C120.778 76.94 121.938 76.52 122.618 75.68C123.338 74.84 123.698 73.44 123.698 71.48C123.698 68.6 122.878 66.54 121.238 65.3C119.638 64.02 117.158 63.38 113.798 63.38ZM109.718 48.5C109.718 47.34 110.118 46.36 110.918 45.56C111.758 44.72 112.758 44.3 113.918 44.3C115.078 44.3 116.058 44.72 116.858 45.56C117.698 46.36 118.118 47.34 118.118 48.5C118.118 49.66 117.698 50.66 116.858 51.5C116.058 52.3 115.078 52.7 113.918 52.7C112.758 52.7 111.758 52.3 110.918 51.5C110.118 50.66 109.718 49.66 109.718 48.5ZM140.858 83C140.058 83 139.458 82.72 139.058 82.16C138.658 81.56 138.458 80.84 138.458 80C138.458 77.96 139.258 76.94 140.858 76.94H157.958C157.558 76.38 157.258 75.64 157.058 74.72C156.898 73.8 156.758 72.82 156.638 71.78C156.518 70.74 156.358 69.7 156.158 68.66C155.958 67.58 155.618 66.62 155.138 65.78C154.698 64.94 154.038 64.26 153.158 63.74C152.318 63.18 151.198 62.9 149.798 62.9C148.878 62.9 147.898 62.98 146.858 63.14C145.818 63.3 144.918 63.48 144.158 63.68V58.34C144.878 58.02 145.858 57.72 147.098 57.44C148.378 57.12 149.858 56.96 151.538 56.96C153.978 56.96 155.938 57.32 157.418 58.04C158.898 58.76 160.058 59.7 160.898 60.86C161.738 62.02 162.358 63.34 162.758 64.82C163.158 66.26 163.478 67.72 163.718 69.2C163.998 70.68 164.298 72.1 164.618 73.46C164.938 74.82 165.478 75.98 166.238 76.94H169.778C170.578 76.94 171.178 77.24 171.578 77.84C171.978 78.44 172.178 79.16 172.178 80C172.178 82 171.378 83 169.778 83H140.858ZM173.403 83C172.603 83 172.003 82.72 171.603 82.16C171.203 81.56 171.003 80.84 171.003 80C171.003 77.96 171.803 76.94 173.403 76.94H180.963V39.62H189.303V83H173.403ZM209.934 39.62V83H201.594V39.62H209.934ZM276.099 83C275.459 86.68 273.839 89.34 271.239 90.98C268.679 92.66 264.879 93.5 259.839 93.5C256.759 93.5 254.139 93.18 251.979 92.54C249.859 91.94 248.119 91.04 246.759 89.84C245.439 88.68 244.459 87.26 243.819 85.58C243.219 83.94 242.919 82.08 242.919 80V68.3H251.259V79.1C251.259 80.42 251.379 81.6 251.619 82.64C251.859 83.68 252.279 84.54 252.879 85.22C253.519 85.94 254.399 86.48 255.519 86.84C256.639 87.24 258.079 87.44 259.839 87.44C261.519 87.44 262.879 87.26 263.919 86.9C264.999 86.54 265.839 85.96 266.439 85.16C267.079 84.4 267.519 83.38 267.759 82.1C267.999 80.82 268.119 79.26 268.119 77.42V39.62H276.459V76.94H282.579C283.379 76.94 283.979 77.24 284.379 77.84C284.779 78.44 284.979 79.16 284.979 80C284.979 82 284.179 83 282.579 83H276.099ZM306.522 83C305.362 83 304.282 82.82 303.282 82.46C302.322 82.06 301.522 81.38 300.882 80.42C300.402 81.02 299.682 81.6 298.722 82.16C297.762 82.72 296.242 83 294.162 83H286.182C285.382 83 284.782 82.72 284.382 82.16C283.982 81.56 283.782 80.84 283.782 80C283.782 77.96 284.582 76.94 286.182 76.94H289.722C290.642 76.94 291.362 76.88 291.882 76.76C292.402 76.64 292.782 76.42 293.022 76.1C293.302 75.78 293.462 75.32 293.502 74.72C293.582 74.08 293.622 73.24 293.622 72.2V57.5H301.962V74.48C301.962 74.96 302.102 75.36 302.382 75.68C302.662 76 303.002 76.26 303.402 76.46C303.842 76.62 304.302 76.74 304.782 76.82C305.262 76.9 305.682 76.94 306.042 76.94H307.602C308.402 76.94 309.002 77.24 309.402 77.84C309.802 78.44 310.002 79.16 310.002 80C310.002 82 309.202 83 307.602 83H306.522ZM287.622 91.64C287.622 90.48 288.022 89.48 288.822 88.64C289.662 87.84 290.662 87.44 291.822 87.44C292.982 87.44 293.962 87.84 294.762 88.64C295.602 89.48 296.022 90.48 296.022 91.64C296.022 92.8 295.602 93.78 294.762 94.58C293.962 95.42 292.982 95.84 291.822 95.84C290.662 95.84 289.662 95.42 288.822 94.58C288.022 93.78 287.622 92.8 287.622 91.64ZM297.582 91.64C297.582 90.48 297.982 89.48 298.782 88.64C299.622 87.84 300.622 87.44 301.782 87.44C302.942 87.44 303.922 87.84 304.722 88.64C305.562 89.48 305.982 90.48 305.982 91.64C305.982 92.8 305.562 93.78 304.722 94.58C303.922 95.42 302.942 95.84 301.782 95.84C300.622 95.84 299.622 95.42 298.782 94.58C297.982 93.78 297.582 92.8 297.582 91.64ZM311.227 83C310.427 83 309.827 82.72 309.427 82.16C309.027 81.56 308.827 80.84 308.827 80C308.827 77.96 309.627 76.94 311.227 76.94H328.327C327.927 76.38 327.627 75.64 327.427 74.72C327.267 73.8 327.127 72.82 327.007 71.78C326.887 70.74 326.727 69.7 326.527 68.66C326.327 67.58 325.987 66.62 325.507 65.78C325.067 64.94 324.407 64.26 323.527 63.74C322.687 63.18 321.567 62.9 320.167 62.9C319.247 62.9 318.267 62.98 317.227 63.14C316.187 63.3 315.287 63.48 314.527 63.68V58.34C315.247 58.02 316.227 57.72 317.467 57.44C318.747 57.12 320.227 56.96 321.907 56.96C324.347 56.96 326.307 57.32 327.787 58.04C329.267 58.76 330.427 59.7 331.267 60.86C332.107 62.02 332.727 63.34 333.127 64.82C333.527 66.26 333.847 67.72 334.087 69.2C334.367 70.68 334.667 72.1 334.987 73.46C335.307 74.82 335.847 75.98 336.607 76.94H340.147C340.947 76.94 341.547 77.24 341.947 77.84C342.347 78.44 342.547 79.16 342.547 80C342.547 82 341.747 83 340.147 83H311.227ZM317.167 91.52C317.167 90.36 317.567 89.36 318.367 88.52C319.207 87.72 320.207 87.32 321.367 87.32C322.527 87.32 323.507 87.72 324.307 88.52C325.147 89.36 325.567 90.36 325.567 91.52C325.567 92.68 325.147 93.66 324.307 94.46C323.507 95.3 322.527 95.72 321.367 95.72C320.207 95.72 319.207 95.3 318.367 94.46C317.567 93.66 317.167 92.68 317.167 91.52ZM397.233 83C396.073 83 394.993 82.82 393.993 82.46C393.033 82.06 392.233 81.38 391.593 80.42C391.113 81.02 390.393 81.6 389.433 82.16C388.473 82.72 386.953 83 384.873 83H343.773C342.973 83 342.373 82.72 341.973 82.16C341.573 81.56 341.373 80.84 341.373 80C341.373 77.96 342.173 76.94 343.773 76.94H353.373V62.9H361.713V76.94H368.853V62.9H377.193V76.94H380.433C381.353 76.94 382.073 76.88 382.593 76.76C383.113 76.64 383.493 76.42 383.733 76.1C384.013 75.78 384.173 75.32 384.213 74.72C384.293 74.08 384.333 73.24 384.333 72.2V57.5H392.673V74.48C392.673 74.96 392.813 75.36 393.093 75.68C393.373 76 393.713 76.26 394.113 76.46C394.553 76.62 395.013 76.74 395.493 76.82C395.973 76.9 396.393 76.94 396.753 76.94H398.373C399.173 76.94 399.773 77.24 400.173 77.84C400.573 78.44 400.773 79.16 400.773 80C400.773 82 399.973 83 398.373 83H397.233ZM422.322 83C421.162 83 420.082 82.82 419.082 82.46C418.122 82.06 417.322 81.38 416.682 80.42C416.202 81.02 415.482 81.6 414.522 82.16C413.562 82.72 412.042 83 409.962 83H401.982C401.182 83 400.582 82.72 400.182 82.16C399.782 81.56 399.582 80.84 399.582 80C399.582 77.96 400.382 76.94 401.982 76.94H405.522C406.442 76.94 407.162 76.88 407.682 76.76C408.202 76.64 408.582 76.42 408.822 76.1C409.102 75.78 409.262 75.32 409.302 74.72C409.382 74.08 409.422 73.24 409.422 72.2V57.5H417.762V74.48C417.762 74.96 417.902 75.36 418.182 75.68C418.462 76 418.802 76.26 419.202 76.46C419.642 76.62 420.102 76.74 420.582 76.82C421.062 76.9 421.482 76.94 421.842 76.94H423.402C424.202 76.94 424.802 77.24 425.202 77.84C425.602 78.44 425.802 79.16 425.802 80C425.802 82 425.002 83 423.402 83H422.322ZM404.442 48.5C404.442 47.34 404.842 46.36 405.642 45.56C406.482 44.72 407.482 44.3 408.642 44.3C409.802 44.3 410.782 44.72 411.582 45.56C412.422 46.36 412.842 47.34 412.842 48.5C412.842 49.66 412.422 50.66 411.582 51.5C410.782 52.3 409.802 52.7 408.642 52.7C407.482 52.7 406.482 52.3 405.642 51.5C404.842 50.66 404.442 49.66 404.442 48.5ZM414.402 48.5C414.402 47.34 414.802 46.36 415.602 45.56C416.442 44.72 417.442 44.3 418.602 44.3C419.762 44.3 420.742 44.72 421.542 45.56C422.382 46.36 422.802 47.34 422.802 48.5C422.802 49.66 422.382 50.66 421.542 51.5C420.742 52.3 419.762 52.7 418.602 52.7C417.442 52.7 416.442 52.3 415.602 51.5C414.802 50.66 414.402 49.66 414.402 48.5ZM427.027 83C426.227 83 425.627 82.72 425.227 82.16C424.827 81.56 424.627 80.84 424.627 80C424.627 77.96 425.427 76.94 427.027 76.94H434.587V39.62H442.927V83H427.027ZM509.365 83C508.725 86.68 507.105 89.34 504.505 90.98C501.945 92.66 498.145 93.5 493.105 93.5C490.025 93.5 487.405 93.18 485.245 92.54C483.125 91.94 481.385 91.04 480.025 89.84C478.705 88.68 477.725 87.26 477.085 85.58C476.485 83.94 476.185 82.08 476.185 80V68.3H484.525V79.1C484.525 80.42 484.645 81.6 484.885 82.64C485.125 83.68 485.545 84.54 486.145 85.22C486.785 85.94 487.665 86.48 488.785 86.84C489.905 87.24 491.345 87.44 493.105 87.44C494.785 87.44 496.145 87.26 497.185 86.9C498.265 86.54 499.105 85.96 499.705 85.16C500.345 84.4 500.785 83.38 501.025 82.1C501.265 80.82 501.385 79.26 501.385 77.42V39.62H509.725V76.94H515.845C516.645 76.94 517.245 77.24 517.645 77.84C518.045 78.44 518.245 79.16 518.245 80C518.245 82 517.445 83 515.845 83H509.365ZM556.408 83C555.248 83 554.168 82.82 553.168 82.46C552.208 82.06 551.408 81.38 550.768 80.42C550.288 81.02 549.568 81.6 548.608 82.16C547.648 82.72 546.128 83 544.048 83H519.448C518.648 83 518.048 82.72 517.648 82.16C517.248 81.56 517.048 80.84 517.048 80C517.048 77.96 517.848 76.94 519.448 76.94H526.108C525.268 74.66 524.848 72.38 524.848 70.1C524.848 67.74 525.248 65.74 526.048 64.1C526.888 62.42 528.028 61.06 529.468 60.02C530.948 58.98 532.668 58.22 534.628 57.74C536.628 57.26 538.788 57.02 541.108 57.02C542.948 57.02 544.848 57.08 546.808 57.2C548.768 57.32 550.448 57.42 551.848 57.5V74.48C551.848 74.96 551.988 75.36 552.268 75.68C552.548 76 552.888 76.26 553.288 76.46C553.728 76.62 554.188 76.74 554.668 76.82C555.148 76.9 555.568 76.94 555.928 76.94H557.488C558.288 76.94 558.888 77.24 559.288 77.84C559.688 78.44 559.888 79.16 559.888 80C559.888 82 559.088 83 557.488 83H556.408ZM533.368 69.98C533.368 70.9 533.468 71.92 533.668 73.04C533.908 74.12 534.308 75.42 534.868 76.94H539.608C540.528 76.94 541.248 76.88 541.768 76.76C542.288 76.64 542.668 76.42 542.908 76.1C543.188 75.78 543.348 75.32 543.388 74.72C543.468 74.08 543.508 73.24 543.508 72.2V62.96C543.068 62.92 542.648 62.9 542.248 62.9C541.848 62.9 541.448 62.9 541.048 62.9C540.008 62.9 539.028 63 538.108 63.2C537.188 63.4 536.368 63.78 535.648 64.34C534.968 64.86 534.408 65.58 533.968 66.5C533.568 67.42 533.368 68.58 533.368 69.98ZM535.648 48.5C535.648 47.34 536.048 46.36 536.848 45.56C537.688 44.72 538.688 44.3 539.848 44.3C541.008 44.3 541.988 44.72 542.788 45.56C543.628 46.36 544.048 47.34 544.048 48.5C544.048 49.66 543.628 50.66 542.788 51.5C541.988 52.3 541.008 52.7 539.848 52.7C538.688 52.7 537.688 52.3 536.848 51.5C536.048 50.66 535.648 49.66 535.648 48.5ZM561.076 83C560.276 83 559.676 82.72 559.276 82.16C558.876 81.56 558.676 80.84 558.676 80C558.676 77.96 559.476 76.94 561.076 76.94H570.616V62.9H578.956V76.94H586.036V62.9H594.376V76.94H601.576V57.5H609.916V83H561.076ZM620.11 83V76.94H630.91V50.06H639.25V76.94H648.73V39.62H657.07V83H620.11ZM641.29 45.14H628.87V41.6H631.45C631.21 40.8 631.05 40.2 630.97 39.8C630.89 39.36 630.85 38.96 630.85 38.6C630.85 37 631.43 35.74 632.59 34.82C633.75 33.86 635.43 33.38 637.63 33.38C637.95 33.38 638.37 33.4 638.89 33.44C639.45 33.44 639.91 33.46 640.27 33.5V36.92C640.07 36.92 639.77 36.9 639.37 36.86C638.97 36.82 638.67 36.8 638.47 36.8C637.63 36.8 636.89 36.94 636.25 37.22C635.61 37.46 635.29 38.1 635.29 39.14C635.29 39.46 635.31 39.82 635.35 40.22C635.43 40.58 635.57 41.04 635.77 41.6H641.29V45.14ZM678.39 83C675.59 83 673.39 82.38 671.79 81.14C670.19 79.86 669.39 77.72 669.39 74.72V39.62H677.73V72.14C677.73 73.7 677.99 74.9 678.51 75.74C679.03 76.54 680.17 76.94 681.93 76.94H683.49C684.29 76.94 684.89 77.24 685.29 77.84C685.69 78.44 685.89 79.16 685.89 80C685.89 82 685.09 83 683.49 83H678.39ZM687.071 83C686.271 83 685.671 82.72 685.271 82.16C684.871 81.56 684.671 80.84 684.671 80C684.671 77.96 685.471 76.94 687.071 76.94H693.971V57.5H702.311V83H687.071ZM693.491 91.46C693.491 90.3 693.891 89.3 694.691 88.46C695.531 87.66 696.531 87.26 697.691 87.26C698.851 87.26 699.831 87.66 700.631 88.46C701.471 89.3 701.891 90.3 701.891 91.46C701.891 92.62 701.471 93.6 700.631 94.4C699.831 95.24 698.851 95.66 697.691 95.66C696.531 95.66 695.531 95.24 694.691 94.4C693.891 93.6 693.491 92.62 693.491 91.46ZM738.411 63.38V57.5H743.571C746.971 57.5 749.751 57.84 751.911 58.52C754.071 59.16 755.751 60.08 756.951 61.28C758.151 62.48 758.971 63.92 759.411 65.6C759.851 67.28 760.071 69.16 760.071 71.24V83H734.691V76.94H751.671V72.14C751.671 70.58 751.611 69.26 751.491 68.18C751.371 67.06 751.011 66.16 750.411 65.48C749.811 64.76 748.911 64.24 747.711 63.92C746.511 63.56 744.831 63.38 742.671 63.38H738.411ZM796.66 83C796.58 84.64 796.3 86.1 795.82 87.38C795.38 88.7 794.66 89.8 793.66 90.68C792.7 91.6 791.42 92.3 789.82 92.78C788.22 93.26 786.22 93.5 783.82 93.5H773.98V87.62H783.64C785.24 87.62 786.38 87.24 787.06 86.48C787.78 85.76 788.18 84.6 788.26 83H785.2C783.16 83 781.2 82.84 779.32 82.52C777.48 82.16 775.86 81.52 774.46 80.6C773.1 79.68 772 78.4 771.16 76.76C770.36 75.12 769.96 72.98 769.96 70.34C769.96 67.46 770.48 65.14 771.52 63.38C772.56 61.62 773.86 60.28 775.42 59.36C776.98 58.4 778.64 57.78 780.4 57.5C782.2 57.18 783.84 57.02 785.32 57.02C786.16 57.02 787.12 57.04 788.2 57.08C789.32 57.12 790.4 57.16 791.44 57.2C792.52 57.24 793.52 57.3 794.44 57.38C795.4 57.42 796.16 57.46 796.72 57.5V76.94H802.24C803.04 76.94 803.64 77.24 804.04 77.84C804.44 78.44 804.64 79.16 804.64 80C804.64 82 803.84 83 802.24 83H796.66ZM778.24 70.16C778.24 72.56 778.76 74.3 779.8 75.38C780.84 76.42 782.58 76.94 785.02 76.94H788.32V63.44C787.6 63.4 786.92 63.38 786.28 63.38C785.68 63.38 785.24 63.38 784.96 63.38C784.16 63.38 783.36 63.46 782.56 63.62C781.8 63.78 781.08 64.1 780.4 64.58C779.76 65.06 779.24 65.76 778.84 66.68C778.44 67.56 778.24 68.72 778.24 70.16ZM841.347 83C840.187 83 839.147 82.82 838.227 82.46C837.347 82.06 836.587 81.38 835.947 80.42C835.467 81.06 834.707 81.66 833.667 82.22C832.627 82.74 831.067 83 828.987 83H805.827C805.027 83 804.427 82.72 804.027 82.16C803.627 81.56 803.427 80.84 803.427 80C803.427 77.96 804.227 76.94 805.827 76.94H824.067C825.147 76.94 826.007 76.78 826.647 76.46C827.287 76.1 827.767 75.64 828.087 75.08C828.447 74.52 828.687 73.88 828.807 73.16C828.927 72.44 828.987 71.68 828.987 70.88C828.987 68.24 828.247 66.34 826.767 65.18C825.327 63.98 822.847 63.38 819.327 63.38H809.127V57.5L826.107 39.32L831.387 44.3L819.147 57.5H819.927C822.687 57.5 825.147 57.74 827.307 58.22C829.467 58.66 831.287 59.4 832.767 60.44C834.287 61.48 835.427 62.88 836.187 64.64C836.987 66.4 837.387 68.6 837.387 71.24V74.48C837.387 74.96 837.527 75.36 837.807 75.68C838.087 76 838.427 76.26 838.827 76.46C839.267 76.62 839.727 76.74 840.207 76.82C840.687 76.9 841.107 76.94 841.467 76.94H842.547C843.347 76.94 843.947 77.24 844.347 77.84C844.747 78.44 844.947 79.16 844.947 80C844.947 82 844.147 83 842.547 83H841.347ZM846.165 83C845.365 83 844.765 82.72 844.365 82.16C843.965 81.56 843.765 80.84 843.765 80C843.765 77.96 844.565 76.94 846.165 76.94H853.725V39.62H862.065V83H846.165ZM882.695 39.62V83H874.355V39.62H882.695ZM928.04 83C926.6 83 925.34 83.32 924.26 83.96C923.22 84.6 922.7 85.74 922.7 87.38C922.7 88.34 922.92 89.12 923.36 89.72C923.84 90.32 924.42 90.78 925.1 91.1C925.82 91.46 926.6 91.68 927.44 91.76C928.28 91.88 929.06 91.94 929.78 91.94C930.66 91.94 931.56 91.88 932.48 91.76C933.44 91.68 934.28 91.56 935 91.4V97.22C933.52 97.58 932.24 97.8 931.16 97.88C930.12 97.96 929.14 98 928.22 98C925.86 98 923.8 97.72 922.04 97.16C920.32 96.64 918.9 95.88 917.78 94.88C916.66 93.88 915.82 92.7 915.26 91.34C914.74 90.02 914.48 88.54 914.48 86.9C914.48 85.1 914.8 83.58 915.44 82.34C916.08 81.06 916.94 80.02 918.02 79.22C919.14 78.42 920.46 77.84 921.98 77.48C923.54 77.12 925.22 76.94 927.02 76.94H935C934.6 76.38 934.3 75.64 934.1 74.72C933.94 73.8 933.8 72.82 933.68 71.78C933.56 70.74 933.4 69.7 933.2 68.66C933 67.58 932.66 66.62 932.18 65.78C931.74 64.94 931.08 64.26 930.2 63.74C929.36 63.18 928.24 62.9 926.84 62.9C925.92 62.9 924.94 62.98 923.9 63.14C922.86 63.3 921.96 63.48 921.2 63.68V58.34C921.92 58.02 922.9 57.72 924.14 57.44C925.42 57.12 926.9 56.96 928.58 56.96C931.02 56.96 932.98 57.32 934.46 58.04C935.94 58.76 937.1 59.7 937.94 60.86C938.78 62.02 939.4 63.34 939.8 64.82C940.2 66.26 940.52 67.72 940.76 69.2C941.04 70.68 941.34 72.1 941.66 73.46C941.98 74.82 942.52 75.98 943.28 76.94H946.82C947.62 76.94 948.22 77.24 948.62 77.84C949.02 78.44 949.22 79.16 949.22 80C949.22 82 948.42 83 946.82 83H928.04ZM1003.91 83C1002.75 83 1001.67 82.82 1000.67 82.46C999.708 82.06 998.908 81.38 998.268 80.42C997.788 81.02 997.068 81.6 996.108 82.16C995.148 82.72 993.628 83 991.548 83H950.448C949.648 83 949.048 82.72 948.648 82.16C948.248 81.56 948.048 80.84 948.048 80C948.048 77.96 948.848 76.94 950.448 76.94H960.048V62.9H968.388V76.94H975.528V62.9H983.868V76.94H987.108C988.028 76.94 988.748 76.88 989.268 76.76C989.788 76.64 990.168 76.42 990.408 76.1C990.688 75.78 990.848 75.32 990.888 74.72C990.968 74.08 991.008 73.24 991.008 72.2V57.5H999.348V74.48C999.348 74.96 999.488 75.36 999.768 75.68C1000.05 76 1000.39 76.26 1000.79 76.46C1001.23 76.62 1001.69 76.74 1002.17 76.82C1002.65 76.9 1003.07 76.94 1003.43 76.94H1005.05C1005.85 76.94 1006.45 77.24 1006.85 77.84C1007.25 78.44 1007.45 79.16 1007.45 80C1007.45 82 1006.65 83 1005.05 83H1003.91ZM1008.66 83C1007.86 83 1007.26 82.72 1006.86 82.16C1006.46 81.56 1006.26 80.84 1006.26 80C1006.26 77.96 1007.06 76.94 1008.66 76.94H1014.96C1014.52 75.78 1014.2 74.5 1014 73.1C1013.8 71.66 1013.7 70.44 1013.7 69.44C1013.7 67.44 1014.06 65.66 1014.78 64.1C1015.54 62.54 1016.56 61.24 1017.84 60.2C1019.16 59.12 1020.7 58.32 1022.46 57.8C1024.26 57.24 1026.22 56.96 1028.34 56.96C1030.54 56.96 1032.5 57.28 1034.22 57.92C1035.98 58.52 1037.46 59.4 1038.66 60.56C1039.86 61.68 1040.78 63.06 1041.42 64.7C1042.06 66.3 1042.38 68.08 1042.38 70.04C1042.38 71.8 1042.12 73.46 1041.6 75.02C1041.08 76.58 1040.32 77.96 1039.32 79.16C1038.32 80.32 1037.06 81.26 1035.54 81.98C1034.06 82.66 1032.34 83 1030.38 83H1008.66ZM1028.22 76.94C1029.1 76.94 1029.88 76.76 1030.56 76.4C1031.24 76.04 1031.8 75.56 1032.24 74.96C1032.72 74.32 1033.08 73.6 1033.32 72.8C1033.56 71.96 1033.68 71.08 1033.68 70.16C1033.68 67.88 1033.22 66.1 1032.3 64.82C1031.42 63.5 1030.02 62.84 1028.1 62.84C1026.34 62.84 1024.94 63.44 1023.9 64.64C1022.9 65.84 1022.4 67.5 1022.4 69.62C1022.4 70.66 1022.52 71.9 1022.76 73.34C1023 74.74 1023.34 75.94 1023.78 76.94H1028.22ZM1061.36 39.62V83H1053.02V39.62H1061.36Z" fill="#FFFDFD"/>
</svg>
